<svg width="1600" height="900" viewBox="0 0 1600 900" fill="none" xmlns="http://www.w3.org/2000/svg">
  <rect width="1600" height="900" fill="#F9FAFB"/>
  <g opacity="0.9" filter="url(#blur)">
    <circle cx="340" cy="180" r="220" fill="url(#emeraldSoft)" />
    <circle cx="1320" cy="140" r="240" fill="url(#emeraldSoft)" />
    <circle cx="1180" cy="660" r="260" fill="url(#emeraldSoft)" />
  </g>
  <g opacity="0.55">
    <path d="M180 200C420 140 560 220 760 180C960 140 1140 40 1380 120" stroke="#0EA472" stroke-width="2" stroke-linecap="round" stroke-opacity="0.45"/>
    <path d="M160 340C360 300 520 360 760 320C1000 280 1200 160 1420 240" stroke="#0EA472" stroke-width="2" stroke-linecap="round" stroke-opacity="0.35"/>
    <path d="M200 500C420 470 640 560 880 520C1120 480 1280 380 1420 420" stroke="#0EA472" stroke-width="2" stroke-linecap="round" stroke-opacity="0.28"/>
  </g>
  <g opacity="0.18">
    <rect x="180" y="160" width="360" height="220" rx="22" fill="url(#panelGradient)" stroke="#0EA472" stroke-width="2" stroke-opacity="0.25"/>
    <rect x="1080" y="260" width="360" height="220" rx="22" fill="url(#panelGradient)" stroke="#0EA472" stroke-width="2" stroke-opacity="0.25"/>
    <rect x="540" y="540" width="420" height="200" rx="22" fill="url(#panelGradient)" stroke="#0EA472" stroke-width="2" stroke-opacity="0.25"/>
  </g>
  <g opacity="0.12" stroke="#0EA472" stroke-width="1">
    <path d="M240 120L1400 760" />
    <path d="M220 520L1180 180" />
    <path d="M360 740L1360 260" />
  </g>
  <g opacity="0.4">
    <rect x="880" y="180" width="4" height="18" rx="2" fill="#0EA472"/>
    <rect x="900" y="180" width="4" height="28" rx="2" fill="#0EA472"/>
    <rect x="920" y="180" width="4" height="24" rx="2" fill="#0EA472"/>
    <rect x="940" y="180" width="4" height="14" rx="2" fill="#0EA472"/>
    <rect x="960" y="180" width="4" height="22" rx="2" fill="#0EA472"/>
    <rect x="980" y="180" width="4" height="32" rx="2" fill="#0EA472"/>
  </g>
  <defs>
    <linearGradient id="emeraldSoft" x1="0" y1="0" x2="1" y2="1">
      <stop stop-color="#0EA472" stop-opacity="0.18"/>
      <stop offset="1" stop-color="#0EA472" stop-opacity="0"/>
    </linearGradient>
    <linearGradient id="panelGradient" x1="0" y1="0" x2="1" y2="1">
      <stop stop-color="#0EA472" stop-opacity="0.08"/>
      <stop offset="1" stop-color="#0EA472" stop-opacity="0.02"/>
    </linearGradient>
    <filter id="blur" x="0" y="-40" width="1600" height="980" filterUnits="userSpaceOnUse" color-interpolation-filters="sRGB">
      <feGaussianBlur stdDeviation="120"/>
    </filter>
  </defs>
</svg>
